<?xml version="1.0" encoding="utf-8"?>
<!-- Generator: Adobe Illustrator 16.0.0, SVG Export Plug-In . SVG Version: 6.00 Build 0)  -->
<!DOCTYPE svg PUBLIC "-//W3C//DTD SVG 1.1//EN" "http://www.w3.org/Graphics/SVG/1.1/DTD/svg11.dtd">
<svg version="1.1" id="Layer_1" xmlns="http://www.w3.org/2000/svg" xmlns:xlink="http://www.w3.org/1999/xlink" x="0px" y="0px"
	 width="519px" height="214px" viewBox="45.5 299.5 519 214" enable-background="new 45.5 299.5 519 214" xml:space="preserve">
<path fill="#8085BB" d="M135.129,493.165c-45.165-0.489-84.211-37.944-82.864-87.883c1.347-40.392,29.009-78.091,69.891-84.701
	c26.071-3.917,57.527,3.672,75.521,23.501c4.284,5.018-2.081,10.526-6.365,6.12c-16.034-17.993-44.309-24.48-67.81-20.808
	c-36.72,5.752-61.444,40.147-62.791,76.255c-1.102,44.063,34.027,78.091,74.664,78.947c23.012,0.245,47.246-9.792,60.466-29.009
	v-44.063h-56.182c-5.019,0-5.019-7.956,0-7.956h59.364c3.672,0,4.773,2.081,4.773,5.019v47.001c0,2.081-0.245,4.529-1.836,6.12
	C186.415,482.026,160.466,493.41,135.129,493.165z M554.961,322.417c6.365,0,6.365,7.956,0,7.956h-68.299l0.244,156.182
	c0,3.427-2.692,5.019-4.773,5.019c-2.08,0-4.528-1.592-4.528-5.019V330.374H409.55c-6.364,0-6.364-7.956,0-7.956H554.961z"/>
<g>
	<g>
		<g>
			
				<rect x="277.347" y="301.33" transform="matrix(0.866 0.5001 -0.5001 0.866 230.4279 -89.2314)" fill="#43DEA4" width="8.704" height="167.956"/>
		</g>
	</g>
	<g>
		<g>
			<rect x="234.213" y="444.239" fill="#43DEA4" width="167.961" height="8.705"/>
		</g>
	</g>
	<g>
		<g>
			
				<rect x="233.214" y="465.258" transform="matrix(0.866 0.5 -0.5 0.866 272.5522 -77.9433)" fill="#43DEA4" width="97.009" height="8.706"/>
		</g>
	</g>
	<g>
		<g>
			
				<rect x="306.195" y="338.841" transform="matrix(0.866 0.5 -0.5 0.866 219.1228 -131.3718)" fill="#43DEA4" width="97.008" height="8.704"/>
		</g>
	</g>
	<g>
		<g>
			
				<rect x="277.389" y="294.657" transform="matrix(0.4999 0.8661 -0.8661 0.4999 438.1027 -72.397)" fill="#43DEA4" width="8.705" height="97.008"/>
		</g>
	</g>
	<g>
		<g>
			
				<rect x="270.78" y="380.958" transform="matrix(0.5 0.866 -0.866 0.5 511.0619 -114.5772)" fill="#43DEA4" width="167.958" height="8.703"/>
		</g>
	</g>
	<g>
		<g>
			<rect x="240.873" y="357.872" fill="#43DEA4" width="8.705" height="97.012"/>
		</g>
	</g>
	<g>
		<g>
			<rect x="386.862" y="357.872" fill="#43DEA4" width="8.703" height="97.012"/>
		</g>
	</g>
	<g>
		<g>
			
				<rect x="350.896" y="427.379" transform="matrix(0.5 0.866 -0.866 0.5 584.0082 -72.3934)" fill="#43DEA4" width="7.604" height="84.371"/>
		</g>
	</g>
	<path fill="#43DEA4" d="M407.102,457.716c-5.034,8.756-16.255,11.745-25.014,6.712c-8.757-5.034-11.745-16.257-6.711-25.015
		c5.032-8.755,16.256-11.746,25.013-6.71C409.2,437.79,412.19,448.958,407.102,457.716"/>
	<path fill="#43DEA4" d="M261.009,373.341c-5.034,8.758-16.256,11.747-25.013,6.712c-8.757-5.033-11.746-16.255-6.712-25.012
		c5.035-8.758,16.257-11.747,25.014-6.711C263.053,353.415,266.043,364.583,261.009,373.341"/>
	<path fill="#43DEA4" d="M229.337,457.716c-5.035-8.758-2.046-19.926,6.712-25.013c8.756-5.036,19.925-2.045,25.012,6.71
		c5.034,8.758,2.046,19.926-6.712,25.015C245.54,469.461,234.369,466.472,229.337,457.716"/>
	<path fill="#43DEA4" d="M375.429,373.341c-5.034-8.757-2.044-19.926,6.713-25.012c8.755-5.035,19.926-2.046,25.013,6.711
		c5.035,8.757,2.046,19.925-6.713,25.012C391.685,385.087,380.465,382.099,375.429,373.341"/>
	<path fill="#43DEA4" d="M318.219,509.052c-10.12,0-18.3-8.18-18.3-18.303c0-10.117,8.18-18.299,18.3-18.299
		c10.121,0,18.302,8.182,18.302,18.299C336.521,500.818,328.34,509.052,318.219,509.052"/>
	<path fill="#43DEA4" d="M318.219,340.305c-10.12,0-18.3-8.18-18.3-18.3c0-10.122,8.18-18.302,18.3-18.302
		c10.121,0,18.302,8.181,18.302,18.302C336.521,332.125,328.34,340.305,318.219,340.305"/>
</g>
</svg>
