<svg xmlns="http://www.w3.org/2000/svg" width="612" height="792"><path fill="#8085BB" d="M135.129 493.165c-45.165-.489-84.211-37.944-82.864-87.883 1.347-40.392 29.009-78.091 69.891-84.701 26.071-3.917 57.527 3.672 75.521 23.501 4.284 5.018-2.081 10.526-6.365 6.12-16.034-17.993-44.309-24.48-67.81-20.808-36.72 5.752-61.444 40.147-62.791 76.255-1.102 44.063 34.027 78.091 74.664 78.947 23.012.245 47.246-9.792 60.466-29.009v-44.063h-56.182c-5.019 0-5.019-7.956 0-7.956h59.364c3.672 0 4.773 2.081 4.773 5.019v47.001c0 2.081-.245 4.529-1.836 6.12-15.545 20.318-41.494 31.702-66.831 31.457zm419.832-170.748c6.365 0 6.365 7.956 0 7.956h-68.299l.244 156.182c0 3.427-2.692 5.019-4.773 5.019-2.08 0-4.528-1.592-4.528-5.019V330.374H409.55c-6.364 0-6.364-7.956 0-7.956h145.411z"/><path fill="#43DEA4" d="M319.915269 310.4216147l7.537664 4.3528704-83.9947956 145.449896-7.537664-4.3528704z"/><path fill="#43DEA4" d="M234.213 444.239h167.961v8.705H234.213z"/><path fill="#43DEA4" d="M241.886524 441.577128l84.009794 48.5045-4.353 7.539396-84.009794-48.5045zm72.980646-126.415122l84.008928 48.504-4.352 7.537664-84.008928-48.504z"/><path fill="#43DEA4" d="M321.5670334 315.1486472l4.3516295 7.5394005-84.0186288 48.4942992-4.3516295-7.5394005z"/><path fill="#43DEA4" d="M316.542272 310.39728l83.979 145.451628-7.536798 4.3515-83.979-145.451628zM240.873 357.872h8.705v97.012h-8.705z"/><path fill="#43DEA4" d="M386.862 357.872h8.703v97.012h-8.703z"/><path fill="#43DEA4" d="M389.345986 445.172036l3.802 6.585064-73.065286 42.1855-3.802-6.585064z"/><path fill="#43DEA4" d="M407.102 457.716c-5.034 8.756-16.255 11.745-25.014 6.712-8.757-5.034-11.745-16.257-6.711-25.015 5.032-8.755 16.256-11.746 25.013-6.71 8.81 5.087 11.8 16.255 6.712 25.013m-146.093-84.375c-5.034 8.758-16.256 11.747-25.013 6.712-8.757-5.033-11.746-16.255-6.712-25.012 5.035-8.758 16.257-11.747 25.014-6.711 8.755 5.085 11.745 16.253 6.711 25.011m-31.672 84.375c-5.035-8.758-2.046-19.926 6.712-25.013 8.756-5.036 19.925-2.045 25.012 6.71 5.034 8.758 2.046 19.926-6.712 25.015-8.809 5.033-19.98 2.044-25.012-6.712m146.092-84.375c-5.034-8.757-2.044-19.926 6.713-25.012 8.755-5.035 19.926-2.046 25.013 6.711 5.035 8.757 2.046 19.925-6.713 25.012-8.757 5.035-19.977 2.047-25.013-6.711m-57.21 135.711c-10.12 0-18.3-8.18-18.3-18.303 0-10.117 8.18-18.299 18.3-18.299 10.121 0 18.302 8.182 18.302 18.299 0 10.069-8.181 18.303-18.302 18.303m0-168.747c-10.12 0-18.3-8.18-18.3-18.3 0-10.122 8.18-18.302 18.3-18.302 10.121 0 18.302 8.181 18.302 18.302 0 10.12-8.181 18.3-18.302 18.3"/></svg>